<?xml version="1.0" encoding="UTF-8"?>
<svg id="Layer_1" data-name="Layer 1" xmlns="http://www.w3.org/2000/svg" viewBox="0 0 1080 1080">
  <path d="M540,69.59C562.99,28.1,607.29,0,658.12,0c63.07,0,116.02,43.31,130.99,101.84,68.55,6.43,122.13,64.17,122.13,134.41,0,14.13-4.01,27.63-6.12,40.29,62.23,19.2,107.37,76.99,107.37,145.34,0,26.16-6.54,50.84-18.35,72.35,51.26,28.9,85.85,83.95,85.85,147.02,0,70.24-43.03,130.57-104.2,155.88,1.9,9.7,2.95,19.62,2.95,29.74,0,83.95-67.92,151.88-151.87,151.88-7.8,0-15.19-.63-22.78-1.69-19.2,59.48-72.35,102.94-137.53,102.94-54.84,0-102.3-30.8-126.56-75.94-24.26,45.14-73.62,75.94-126.56,75.94-65.18,0-120.23-43.45-137.53-102.94-7.59,1.05-14.98,1.69-22.78,1.69-83.87,0-151.88-67.92-151.88-151.88,0-10.12,.99-20.04,2.91-29.74C43.01,771.82,0,711.49,0,641.25c0-63.07,34.61-118.13,85.83-147.02-11.69-21.52-18.33-46.2-18.33-72.35,0-68.34,45.22-126.14,107.39-145.34-3.99-12.66-6.14-26.16-6.14-40.29,0-70.24,53.58-127.98,122.13-134.41C303.96,43.31,358.8,0,421.88,0c50.84,0,95.13,28.1,118.12,69.59h0Zm-16.88,65.41c0-55.92-45.35-101.25-101.25-101.25-51.05,0-93.23,37.72-100.2,86.78l-2.11,14.55-15.82-.08c-55.9,0-101.25,45.33-101.25,101.25,0,16.24,3.75,31.43,8.65,44.93l12.02,18.56-22.68,5.48c-56.26,7.17-101.14,57.8-101.14,116.65,0,25.95,10.23,49.78,24.38,69.4l12.51,17.09-19.64,8.23c-48.71,20.46-84.75,68.55-84.75,124.66,0,60.75,42.06,112.22,97.35,129.09l16.24,5.06-5.08,16.24c-3.48,10.97-7.26,22.99-7.26,35.23,0,65.18,54.78,118.12,118.12,118.12,12.66,0,22.99-1.48,32.91-4.01l18.14-5.06,2.95,18.56c8.44,52.1,53.79,91.76,106.31,91.76,60.12,0,107.58-45.14,111.37-102.3l-1.69-3.8,1.9-805.15Zm33.75,805.15l.21,3.8c3.8,57.16,51.26,102.3,109.48,102.3,54.42,0,99.77-39.66,108.21-91.76l2.95-18.56,18.14,5.06c8.02,2.53,20.25,4.01,31.01,4.01,65.18,0,118.12-52.95,118.12-118.12,0-12.23-1.9-24.26-5.27-35.23l-5.27-16.24,16.24-5.06c53.58-16.87,95.55-68.34,95.55-129.09,0-56.11-34.17-104.2-82.9-124.66l-19.62-8.23,12.45-17.09c14.13-19.62,22.57-43.45,22.57-69.4,0-58.85-43.03-109.48-101.04-116.65l-20.88-5.48,10.12-18.56c6.75-13.5,10.55-28.69,10.55-44.93,0-55.92-45.35-101.25-101.25-101.25l-15.82,.08-2.11-14.55c-6.96-49.06-49.15-86.78-102.09-86.78s-101.25,45.33-101.25,101.25l1.9,805.15Z"/>
  <path d="M403.91,767.38h-58.39c-8.07,0-14.6,5.81-14.6,13v52c0,7.18,6.54,13,14.6,13h58.39c8.06,0,14.6-5.82,14.6-13v-52c0-7.19-6.52-13-14.6-13Zm-7.3,58.5h-43.79v-39h43.79v39Zm83.94-9.75c6.07,0,10.95-4.35,10.95-9.75s-4.9-9.75-10.95-9.75h-18.25v-19.5h18.25c6.07,0,10.95-4.35,10.95-9.75s-4.9-9.75-10.95-9.75h-18.25v-3.25c0-14.36-13.07-26-29.2-26h-3.65v-16.25c0-5.38-4.88-9.75-10.95-9.75s-10.95,4.37-10.95,9.75v16.25h-21.9v-16.25c0-5.38-4.88-9.75-10.95-9.75s-10.95,4.37-10.95,9.75v16.25h-21.9v-16.25c0-5.38-4.88-9.75-10.95-9.75s-10.95,4.37-10.95,9.75v16.25h-3.65c-16.13,0-29.2,11.64-29.2,26v3.25h-18.25c-6.04,0-10.95,4.39-10.95,9.75s4.9,9.75,10.95,9.75h18.25v19.5h-18.25c-6.04,0-10.95,4.39-10.95,9.75s4.9,9.75,10.95,9.75h18.25v19.5h-18.25c-6.04,0-10.95,4.39-10.95,9.75s4.9,9.75,10.95,9.75h18.25v3.25c0,14.36,13.07,26,29.2,26h3.65v16.25c0,5.4,4.93,9.75,10.95,9.75s10.95-4.37,10.95-9.75v-16.25h21.9v16.25c0,5.4,4.93,9.75,10.95,9.75s10.95-4.37,10.95-9.75v-16.25h21.9v16.25c0,5.38,4.9,9.75,10.95,9.75s10.95-4.37,10.95-9.75v-16.25h3.65c16.13,0,29.2-11.64,29.2-26v-3.25h18.25c6.04,0,10.95-4.37,10.95-9.75s-4.9-9.75-10.95-9.75h-18.25v-19.5h18.25Zm-40.14,42.25c0,3.58-3.27,6.5-7.3,6.5h-116.78c-4.02,0-7.3-2.92-7.3-6.5v-104c0-3.58,3.27-6.5,7.3-6.5h116.78c4.02,0,7.3,2.92,7.3,6.5v104Z"/>
  <path d="M286.67,350.53c0-13.55,11.54-24.13,26.31-24.13s26.31,10.58,26.31,24.13-11.79,24.13-26.31,24.13-26.31-10.81-26.31-24.13Zm26.31-12.07c-7.26,0-13.16,5.4-13.16,12.07s5.89,12.07,13.16,12.07,13.16-5.4,13.16-12.07-5.89-12.07-13.16-12.07Zm10.17-52.28c6.08,0,11.37,3.82,12.8,9.24l2.14,8.16c2.33,1.04,4.55,2.23,6.66,3.54l8.8-2.38c5.84-1.58,12.09,.71,15.13,5.54l10.17,16.15c3.01,4.83,2.06,10.93-2.33,14.78l-6.66,5.58c.08,1.38,.14,2.56,.14,3.75s-.05,2.36-.14,3.52l6.66,5.81c4.39,3.85,5.34,9.95,2.33,14.78l-10.17,16.14c-3.04,4.83-9.29,7.11-15.13,5.56l-8.8-2.39c-2.11,1.31-4.33,2.49-6.66,3.54l-2.14,8.17c-1.43,5.4-6.72,9.23-12.8,9.23h-20.34c-6.08,0-11.37-3.82-12.8-9.23l-2.14-8.17c-2.33-1.06-4.55-2.24-6.66-3.54l-9.04,2.39c-5.58,1.56-11.83-.73-14.87-5.56l-10.17-16.14c-3.04-4.83-2.08-10.93,2.32-14.78l6.64-5.81c-.08-1.16-.13-2.34-.13-3.75,0-.96,.04-2.14,.13-3.52l-6.64-5.58c-4.4-3.85-5.36-9.95-2.32-14.78l10.17-16.15c3.04-4.83,9.29-7.12,14.87-5.54l9.04,2.38c2.11-1.31,4.33-2.49,6.66-3.54l2.14-8.16c1.43-5.42,6.72-9.24,12.8-9.24h20.34Zm-24.01,26.04l-3.07,1.18c-3.48,1.33-6.72,3.07-9.65,5.13l-2.66,1.86-15.07-4.07-10.17,16.14,11.37,9.93-.42,3.02c-.23,1.68-.35,3.39-.35,5.13s.12,3.44,.35,5.13l.42,3.02-11.37,9.93,10.17,16.14,15.07-4.07,2.66,1.86c2.93,2.06,6.17,3.8,9.65,5.13l3.07,1.18,3.67,13.98h20.34l3.67-13.98,3.07-1.18c3.48-1.33,6.72-3.07,9.65-5.13l2.66-1.86,15.07,4.07,10.17-16.14-11.37-9.93,.41-3.02c.25-1.68,.36-3.39,.36-5.13s-.11-3.44-.36-5.13l-.41-3.02,11.37-9.93-10.17-16.14-15.07,4.07-2.66-1.86c-2.93-2.06-6.17-3.8-9.65-5.13l-3.07-1.18-3.67-13.98h-20.34l-3.67,13.98Z"/>
  <path d="M307.19,488.52c0-8.25-5.9-14.93-12.56-14.93-7.22,0-12.56,6.68-12.56,14.93s5.34,14.93,12.56,14.93c6.66,0,12.56-6.68,12.56-14.93Zm-27.69-56.96l-2.07,10.37c-2.98,1.54-5.81,3.49-8.38,5.77l-8.51-3.02c-1.73-.62-3.64-.08-4.9,1.53-5.09,6.65-8.98,14.62-11.3,23.43-.57,2.05,0,4.29,1.32,5.78l6.59,7.13c-.5,2.05-.31,4.14-.31,6.27,0,1.6-.19,3.84-.03,5.71l-6.25,7.09c-1.32,1.49-1.88,3.73-1.32,5.78,2.32,8.81,6.22,16.79,11.3,23.43,1.26,1.6,3.17,2.16,4.9,1.53l8.04-2.87c2.76,2.5,5.78,4.59,8.98,6.27l1.95,9.7c.69,2.13,1.76,3.81,3.55,4.29,3.64,.93,7.41,1.46,11.59,1.46,3.61,0,7.38-.52,11.3-1.46,1.51-.49,2.86-2.16,3.27-4.29l1.95-9.7c3.22-1.68,6.23-3.77,8.98-6.27l8.03,2.87c1.76,.63,3.67,.07,4.9-1.53,5.1-6.64,9-14.63,11.33-23.43,.54-2.05-.01-4.29-1.33-5.78l-6.27-7.09c.18-1.87,.27-4.1,.27-5.71,0-2.13-.11-4.22-.32-6.27l6.32-7.13c1.31-1.49,1.87-3.73,1.33-5.78-2.32-8.81-6.24-16.78-11.33-23.43-1.23-1.61-3.15-2.15-4.9-1.53l-8.49,3.02c-2.59-2.28-5.4-4.22-8.39-5.76l-2.07-10.38c-.41-2.11-1.76-3.8-3.27-4.27-3.92-.96-7.69-1.46-11.3-1.46-4.18,0-7.94,.5-11.59,1.46-1.79,.47-2.86,2.16-3.55,4.27h0Zm45.28,57.26c0,1.38-.35,2.72-.47,4.07l-.69,7.35,7.08,8.02c-1.08,2.84-2.38,5.52-3.89,8.02l-9.21-3.25-5.1,4.59c-1.95,1.75-4.05,3.25-6.31,4.4l-5.81,2.99-2.2,11.05c-1.26,.15-2.54,.22-3.55,.22-1.57,0-2.86-.07-4.11-.22l-2.2-11.05-5.81-2.99c-2.26-1.16-4.36-2.65-6.31-4.4l-5.09-4.59-9.23,3.25c-1.51-2.5-2.79-5.19-3.86-8.02l7.06-8.02-.69-7.35c-.13-1.34,.09-2.69,.09-4.07,0-1.53-.22-3.02-.06-4.48l.75-7.43-7.16-8.13c1.07-2.84,2.35-5.52,3.86-8.02l9.58,3.4,5.06-4.46c2.1-1.61,3.8-2.98,6.19-4.06l5.49-2.98,2.32-11.68c1.26-.14,2.54-.22,4.11-.22,1,0,2.29,.07,3.55,.22l2.32,11.68,5.78,2.98c2.1,1.09,4.08,2.45,5.9,4.06l5.06,4.46,9.57-3.4c1.5,2.5,2.81,5.19,3.89,8.02l-7.19,8.13,.76,7.43c.15,1.46,.51,2.95,.51,4.48h0Zm-125.88,50.45c-6.94,0-12.56,6.68-12.56,14.93s5.62,14.93,12.56,14.93,12.56-6.68,12.56-14.93-5.62-14.93-12.56-14.93Zm-36.89-25.26l2.54,10.11c-1.92,3.06-3.55,6.42-4.84,9.96l-8.73,2.46c-1.79,.49-3.2,2.09-3.61,3.88-.78,4.66-1.22,9.14-1.22,13.77s.44,9.1,1.22,13.43c.41,2.13,1.82,3.4,3.61,4.22l8.73,2.46c1.29,3.54,2.92,6.9,4.84,9.96l-2.54,10.11c-.53,2.09-.06,4.37,1.29,5.82,5.59,6.05,12.31,10.67,19.72,13.47,1.73,.63,3.61-.04,4.87-1.6l6.28-7.84c1.44,.6,3.2,.71,4.99,.71,1.63,0,3.23-.11,4.8-.3l5.97,7.43c1.26,1.57,3.14,2.24,4.87,1.6,7.41-2.8,14.13-7.43,19.72-13.47,1.35-1.46,1.82-3.73,1.29-5.82l-2.42-9.55c2.1-3.28,3.86-6.87,5.27-10.67l8.16-2.31c1.79-.82,3.2-2.09,3.61-4.22,.82-4.33,1.51-8.81,1.51-13.43s-.72-9.1-1.51-13.77c-.41-1.79-1.82-3.4-3.61-3.88l-8.16-2.31c-1.41-3.81-3.17-7.39-5.27-10.67l2.42-9.55c.53-2.05,.06-4.33-1.29-5.82-5.59-6.05-12.31-10.67-19.72-13.43-1.73-.67-3.61,0-4.87,1.57l-5.97,7.46c-1.57-.22-3.17-.34-4.8-.34-1.79,0-3.55,.15-4.99,.37l-6.28-7.5c-1.26-1.57-3.14-2.24-4.87-1.57-7.41,2.76-14.13,7.39-19.72,13.43-1.35,1.49-1.82,3.77-1.29,5.82h0Zm37.14,4.37c1.16,0,2.29,.07,3.42,.22l6.19,.82,6.75-8.4c2.39,1.27,4.65,2.8,6.75,4.59l-2.73,10.63,4.14,6.38c1.19,2.31,2.45,4.81,3.42,7.5l2.51,6.9,9.29,2.61c.13,1.49,.19,3.02,.19,4.55s-.06,3.06-.19,4.55l-9.29,2.61-2.51,6.9c-.97,2.69-2.23,5.19-3.42,7.5l-4.14,6.05,2.73,10.97c-2.1,1.79-4.36,3.32-6.75,4.63l-6.75-8.43-6.19,.82c-1.13,.15-2.26,.22-3.42,.22-1.29,0-2.54-.07-3.77-.26l-6.25-.9-6.84,8.55c-2.39-1.31-4.65-2.84-6.75-4.63l2.86-11.38-3.77-6.01c-1.35-2.5-2.48-4.52-3.42-7.35l-2.48-6.53-9.83-2.76c-.13-1.49-.19-3.02-.19-4.55s.06-3.06,.19-4.55l9.83-2.76,2.48-6.87c.94-2.46,2.07-4.85,3.42-7.02l3.77-6.01-2.86-11.38c2.1-1.79,4.36-3.32,6.75-4.59l6.84,8.51,6.25-.9c1.22-.15,2.48-.26,3.77-.26h0Z"/>
  <path d="M743.48,740.11l-12.68-16.82c2.37-2.02,4.32-4.71,5.62-7.95,2.95-7.3,1.96-15.65-2.59-21.85l-11.02-14.87c1.63-1.7,2.95-3.78,3.85-6.13,2.46-6.43,1.38-13.69-2.82-18.93l-42.74-53.39c-3.15-3.9-7.66-6.13-12.42-6.13s-9.27,2.24-12.39,6.13l-42.72,53.37c-4.19,5.27-5.26,12.53-2.81,18.94,.9,2.37,2.21,4.45,3.83,6.12l-11.06,14.94c-4.53,6.16-5.51,14.53-2.56,21.79,1.31,3.27,3.25,5.96,5.62,7.96l-12.67,16.82c-5.05,6.69-6.19,15.85-2.98,23.93,3.14,7.9,9.75,12.84,17.25,12.84h52.08v16.34c0,5.42,3.77,9.78,8.46,9.78,0,0,0,0,0,0,4.7,0,8.59-4.4,8.58-9.81v-16.31h51.88c7.49,0,14.11-4.92,17.25-12.84,3.2-8.09,2.06-17.24-2.94-23.93Zm-12.57,15.8c-.36,.9-.96,1.39-1.74,1.39h-51.9v-9.08s14.47-16.64,14.47-16.64c3.33-3.83,3.33-10.02,0-13.85s-8.72-3.83-12.05,0l-2.45,2.82-.04-51.77c0-5.41-3.82-9.78-8.52-9.78,0,0,0,0,0,0-4.7,0-8.52,4.4-8.2,9.81l.02,18.81-3.14-2.55c-3.33-3.83-8.72-3.83-12.05,0s-3.33,10.02,0,13.85l14.89,16.76,.04,41.63h-52.05c-.79,0-1.38-.46-1.74-1.38-.24-.61-.52-1.81,.36-2.97l34.09-45.22h-23.48l30.41-43.75h-19.46l40.19-50.53,40.47,50.57h-19.43l30.38,43.75h-23.48l34.09,45.22c.88,1.09,.59,2.31,.34,2.93Z"/>
  <path d="M929.62,651.92l-13.26-16.26c2.28-2.1,4.1-4.86,5.26-8.14,2.63-7.39,1.32-15.67-3.44-21.67l-11.52-14.39c1.54-1.76,2.77-3.88,3.57-6.27,2.18-6.5,.82-13.69-3.55-18.75l-44.54-51.51c-3.29-3.76-7.85-5.81-12.57-5.62s-9.1,2.61-12.05,6.61l-40.25,54.89c-3.95,5.41-4.72,12.7-2.03,18.99,.99,2.32,2.37,4.35,4.05,5.95l-10.38,15.33c-4.24,6.32-4.89,14.7-1.67,21.82,1.43,3.2,3.46,5.81,5.89,7.71l-11.9,17.27c-4.74,6.86-5.51,16.05-2.01,23.97,3.43,7.75,10.19,12.41,17.62,12.11l51.67-2.07,.67,16.28c.21,5.4,4.12,9.6,8.77,9.41,0,0,0,0,0,0,4.67-.19,8.35-4.73,8.13-10.12l-.64-16.26,51.46-2.06c7.44-.3,13.8-5.47,16.6-13.49,2.85-8.19,1.36-17.26-3.88-23.73Zm-11.84,16.24c-.32,.91-.9,1.42-1.67,1.45l-51.49,2.06-.37-9.05,13.7-17.16c3.15-3.95,2.9-10.12-.55-13.81s-8.8-3.47-11.95,.48l-2.32,2.91-2.11-51.59c-.22-5.39-4.18-9.6-8.84-9.41,0,0,0,0,0,0-4.67,.19-8.28,4.73-7.74,10.1l.77,18.74-3.22-2.42c-3.45-3.68-8.8-3.47-11.95,.48-3.15,3.95-2.9,10.12,.55,13.81l15.44,16.11,1.7,41.49-51.64,2.07c-.79,.03-1.38-.4-1.78-1.3-.27-.6-.59-1.78,.23-2.98l32.01-46.43-23.3,.93,28.42-44.81-19.3,.77,37.85-51.96,42.17,48.79-19.27,.77,31.88,42.4-23.29,.93,35.62,43.72c.91,1.05,.68,2.28,.46,2.9Z"/>
  <path d="M783.25,606.78l-8.83-11.9c1.65-1.43,3.01-3.33,3.92-5.62,2.05-5.16,1.36-11.07-1.8-15.46l-7.67-10.52c1.13-1.2,2.05-2.67,2.68-4.34,1.71-4.55,.96-9.68-1.96-13.39l-29.76-37.77c-2.2-2.76-5.34-4.34-8.65-4.34s-6.45,1.59-8.63,4.34l-29.74,37.76c-2.92,3.72-3.67,8.86-1.96,13.4,.63,1.67,1.54,3.15,2.67,4.33l-7.7,10.57c-3.15,4.36-3.84,10.28-1.78,15.42,.91,2.31,2.26,4.22,3.91,5.63l-8.82,11.9c-3.51,4.73-4.31,11.21-2.08,16.93,2.19,5.59,6.79,9.08,12.01,9.08h36.26v11.56c0,3.83,2.62,6.92,5.89,6.92,0,0,0,0,0,0,3.28,0,5.98-3.11,5.98-6.94v-11.54h36.12c5.22,0,9.82-3.48,12.01-9.09,2.23-5.73,1.44-12.19-2.05-16.93Zm-8.75,11.17c-.25,.64-.67,.98-1.21,.98h-36.14v-6.42s10.07-11.77,10.07-11.77c2.32-2.71,2.32-7.09,0-9.8s-6.07-2.71-8.39,0l-1.71,1.99-.03-36.62c0-3.83-2.66-6.92-5.93-6.92,0,0,0,0,0,0-3.28,0-5.93,3.12-5.71,6.94v13.3s-2.18-1.8-2.18-1.8c-2.32-2.71-6.07-2.71-8.39,0s-2.32,7.09,0,9.8l10.37,11.86,.02,29.45h-36.24c-.55,0-.96-.32-1.21-.97-.17-.43-.36-1.28,.25-2.1l23.73-31.99h-16.35l21.17-30.95h-13.55l27.98-35.75,28.18,35.77h-13.53l21.15,30.95h-16.35l23.73,31.99c.61,.77,.41,1.64,.24,2.07Z"/>
  <path d="M688.89,324.38l-5.17,29.49-30.5-21.73-30.5,21.73-6.6-37.52-36.51-6.78,21.16-31.66-21.14-30.99,36.51-6.78,6.6-37.52,30.48,21.74,30.48-21.75,6.61,37.53,10.56,1.96c6.13-6.11,14.04-10.74,22.73-12.06l-18.15-5.45-5.46-31.03c-.84-4.79-3.94-8.76-8.32-10.63-4.39-1.86-9.32-1.32-13.24,1.45l-25.21,17.98-25.22-17.99c-3.92-2.75-8.83-3.29-13.23-1.44-4.37,1.87-7.48,5.84-8.32,10.62l-5.46,31.05-30.19,5.6c-4.67,.87-8.54,4.07-10.36,8.59-1.81,4.5-1.28,9.58,1.42,13.58l17.5,25.9-17.5,25.91c-2.7,4-3.22,9.08-1.41,13.58,1.82,4.5,5.69,7.7,10.34,8.56l30.2,5.6,5.46,31.03c.84,4.79,3.95,8.76,8.32,10.63,4.38,1.85,9.33,1.33,13.23-1.45l25.22-18,25.23,17.99c2.37,1.66,5.12,2.53,7.87,2.53,1.8,0,3.61-.36,5.34-1.09,4.37-1.87,7.48-5.84,8.32-10.62l6.51-36.51-6.35-.33c-3.96,0-7.7-.49-11.25-1.73Zm-35.67-70.23c8.82,0,16.43,5.09,20.43,12.5,3.89-4.59,8.86-8.12,14.53-10.25-7.21-12.16-20.11-20.33-34.96-20.33-22.67,0-40.73,18.88-40.73,41.84s18.38,41.84,40.73,41.84c7.66,0,14.74-2.3,20.88-6.04-3.92-4.47-6.79-9.89-8.16-15.93-3.66,3.11-8.02,4.24-12.71,4.24-12.93,0-23.46-10.81-23.46-24.1s10.52-23.77,23.46-23.77Zm117.31,11.71c-4.4,0-8.48,1.32-12.01,3.48-1.26-15.12-13.69-27.59-29.05-27.59-14.2,0-26.07,10.41-28.73,24.2-.18,0-.37-.09-.6-.09-12.92,0-23.46,10.83-23.46,24.1s10.54,24.1,23.46,24.1h70.38c12.92,0,23.46-10.83,23.46-24.1s-10.52-24.1-23.46-24.1Z"/>
  <path d="M420.96,637.51c0,2.46-1.94,4.46-4.33,4.46h-8.67c-2.38,0-4.33-2.01-4.33-4.46s1.95-4.46,4.33-4.46h8.67c2.38,0,4.33,2.01,4.33,4.46Zm-30.33-4.46h-13c-2.39,0-4.33,1.99-4.33,4.46s1.95,4.46,4.33,4.46h13c2.38,0,4.33-2.01,4.33-4.46s-1.95-4.46-4.33-4.46Zm-18.42-34.53c0-10.44,8.26-18.94,18.42-18.94s18.42,8.49,18.42,18.94-8.26,18.94-18.42,18.94-18.42-8.49-18.42-18.94Zm13,0c0,3.07,2.43,5.57,5.42,5.57s5.42-2.49,5.42-5.57c0-3.31-2.44-5.57-5.42-5.57-3.22,0-5.42,2.26-5.42,5.57Zm67.17,0c0,10.44-8.28,18.69-18.44,18.69,0,0,0,0,0,0s0,0,0,0c-10.16,0-18.44-8.49-18.44-18.69s8.28-18.69,18.44-18.69c0,0,0,0,0,0s0,0,0,0c10.15-.25,18.44,8.24,18.44,18.69Zm-13.03,0c0-3.07-2.41-5.55-5.4-5.57-3,.03-5.41,2.25-5.41,5.57,0,3.07,2.41,5.55,5.4,5.57,2.97-.03,5.41-2.5,5.41-5.57Zm7.61,34.53h-13c-2.39,0-4.33,1.99-4.33,4.46s1.94,4.46,4.33,4.46h13c2.39,0,4.33-2,4.33-4.46s-1.95-4.46-4.33-4.46Zm26-57.92v71.29c0,12.3-9.7,22.28-21.67,22.28h-78c-11.97,0-21.67-9.97-21.67-22.28v-71.29c0-12.31,9.7-22.28,21.67-22.28h32.5v-20.05c0-3.69,2.92-6.68,6.5-6.68s6.5,2.99,6.5,6.68v20.05h32.5c11.97,0,21.67,9.97,21.67,22.28Zm-13,0c0-4.91-3.89-8.91-8.67-8.91h-78c-4.78,0-8.67,4-8.67,8.91v71.29c0,4.91,3.89,8.91,8.67,8.91h78c4.78,0,8.67-4,8.67-8.91v-71.29Zm26.03,4.46h-4.36v53.47h4.35c4.8,0,8.64-3.98,8.64-8.91v-35.65c0-4.93-3.87-8.91-8.64-8.91Zm-156.03,8.91v35.65c0,4.92,3.86,8.91,8.65,8.91h4.35v-53.47h-4.33c-4.79,0-8.67,3.98-8.67,8.91Z"/>
</svg>